<?xml version="1.0" encoding="UTF-8"?>
<svg id="Layer_2" xmlns="http://www.w3.org/2000/svg" version="1.1" viewBox="0 0 71.3 24.7">
  <!-- Generator: Adobe Illustrator 30.2.1, SVG Export Plug-In . SVG Version: 2.1.1 Build 1)  -->
  <defs>
    <style>
      .st0 {
        fill: #fff;
      }

      .st1 {
        fill: none;
        stroke: #fff;
        stroke-miterlimit: 10;
      }

      .st2 {
        isolation: isolate;
      }

      .st3 {
        fill: #4678be;
      }
    </style>
  </defs>
  <g id="Layer_1-2">
    <g>
      <g>
        <rect class="st3" width="71.3" height="24.7" rx="1" ry="1"/>
        <g class="st2">
          <g class="st2">
            <path class="st0" d="M24.5,12.3c0-2.9,1.7-4.7,4.1-4.7s3.4,1.1,3.7,3h-1.2c-.3-1.3-1.3-1.9-2.5-1.9s-2.9,1.3-2.9,3.7,1.3,3.6,2.9,3.6,2.3-.7,2.5-1.9h1.2c-.3,1.9-1.8,3-3.7,3s-4.1-1.8-4.1-4.7Z"/>
          </g>
          <g class="st2">
            <path class="st0" d="M34,10h1.1v1.1h0c.3-.7,1-1.2,1.8-1.2s.4,0,.6,0v1.1c0,0-.4,0-.7,0-1,0-1.7.7-1.7,1.6v4.3h-1.1v-6.9Z"/>
          </g>
          <g class="st2">
            <path class="st0" d="M38.2,13.5c0-2.1,1.2-3.6,3.1-3.6s3,.9,3,3.5v.5h-5c0,1.4.9,2.2,2.1,2.2s1.4-.4,1.7-1.1l1.1.3c-.3,1-1.4,1.8-2.8,1.8-2,0-3.2-1.4-3.2-3.6ZM43.2,12.9c-.1-1.2-.7-2-1.9-2s-1.9.9-2,2h3.9Z"/>
          </g>
          <g class="st2">
            <path class="st0" d="M45.6,15c0-1.6,1.4-1.9,2.7-2,1.2-.2,1.8-.1,1.8-.6h0c0-.9-.5-1.4-1.5-1.4s-1.5.5-1.8,1l-1.1-.4c.5-1.3,1.7-1.6,2.8-1.6s2.6.3,2.6,2.4v4.6h-1.1v-.9h0c-.2.5-.9,1.1-2.1,1.1s-2.4-.8-2.4-2.1ZM50.1,14.4v-1c-.2.2-1.4.3-1.8.4-.8.1-1.5.4-1.5,1.2s.6,1.1,1.4,1.1c1.2,0,1.9-.8,1.9-1.7Z"/>
          </g>
          <g class="st2">
            <path class="st0" d="M55.9,11h-1.4v4.2c0,.6.2.9.8.9s.4,0,.6,0l.2.9c-.2,0-.5.1-.8.1-1.2,0-1.9-.7-1.9-1.8v-4.3h-1v-1h1v-1.6h1.1v1.6h1.4v1Z"/>
          </g>
          <g class="st2">
            <path class="st0" d="M56.9,13.5c0-2.1,1.2-3.6,3.1-3.6s3,.9,3,3.5v.5h-5c0,1.4.9,2.2,2.1,2.2s1.4-.4,1.7-1.1l1.1.3c-.3,1-1.4,1.8-2.8,1.8-2,0-3.2-1.4-3.2-3.6ZM61.9,12.9c-.1-1.2-.7-2-1.9-2s-1.9.9-2,2h3.9Z"/>
          </g>
        </g>
      </g>
      <g>
        <line class="st1" x1="12.4" y1="6.9" x2="12.4" y2="17.8"/>
        <line class="st1" x1="17.9" y1="12.3" x2="7" y2="12.3"/>
      </g>
    </g>
  </g>
</svg>