<?xml version="1.0" encoding="UTF-8"?>
<svg id="Layer_2" data-name="Layer 2" xmlns="http://www.w3.org/2000/svg" viewBox="0 0 11.88 11.88">
  <defs>
    <style>
      .cls-1 {
        fill: #ff0096;
      }
    </style>
  </defs>
  <g id="Layer_1-2" data-name="Layer 1">
    <g>
      <path class="cls-1" d="M10.95,1.2h-.62v.68c0,.2-.08.39-.23.53-.15.14-.34.22-.55.22s-.4-.08-.55-.22c-.15-.14-.23-.33-.23-.53v-.68h-2.04v.68c0,.2-.08.39-.23.53-.15.14-.34.22-.55.22s-.4-.08-.55-.22c-.15-.14-.23-.33-.23-.53v-.68h-2.04v.68c0,.2-.08.39-.23.53-.15.14-.34.22-.55.22s-.4-.08-.55-.22c-.15-.14-.23-.33-.23-.53v-.68h-.62c-.52,0-.94.41-.94.91v8.86c0,.5.42.91.94.91h10.01c.52,0,.94-.41.94-.91V2.11c0-.5-.42-.91-.94-.91ZM11.1,10.87c0,.14-.12.25-.26.25H1.04c-.14,0-.26-.11-.26-.25V3.66h10.32v7.22Z"/>
      <path class="cls-1" d="M1.8,1.89c0,.29.24.52.54.52s.54-.23.54-.52V.52c0-.29-.24-.52-.54-.52s-.54.23-.54.52v1.37Z"/>
      <path class="cls-1" d="M5.41,1.89c0,.29.24.52.54.52s.54-.23.54-.52V.52c0-.29-.24-.52-.54-.52s-.54.23-.54.52v1.37Z"/>
      <path class="cls-1" d="M9.01,1.89c0,.29.24.52.54.52s.54-.23.54-.52V.52c0-.29-.24-.52-.54-.52s-.54.23-.54.52v1.37Z"/>
    </g>
  </g>
</svg>