<?xml version="1.0" encoding="UTF-8"?>
<svg id="Layer_2" data-name="Layer 2" xmlns="http://www.w3.org/2000/svg" viewBox="0 0 16.76 20">
  <defs>
    <style>
      .cls-1 {
        fill: #2e6cb7;
      }
    </style>
  </defs>
  <g id="Layer_1-2" data-name="Layer 1">
    <g>
      <polygon class="cls-1" points="11.35 .47 11.35 1.62 11.35 2.77 11.35 5.41 13.99 5.41 15.14 5.41 16.28 5.41 11.35 .47"/>
      <path class="cls-1" d="M15.95,7.03h-5.41c-.45,0-.81-.36-.81-.81V0H3.51c-.45,0-.81.36-.81.81v15.68c0,.45.36.81.81.81h12.43c.45,0,.81-.36.81-.81V7.03h-.81ZM12.7,14.05h-5.95c-.45,0-.81-.36-.81-.81s.36-.81.81-.81h5.95c.45,0,.81.36.81.81s-.36.81-.81.81ZM12.7,10.81h-5.95c-.45,0-.81-.36-.81-.81s.36-.81.81-.81h5.95c.45,0,.81.36.81.81s-.36.81-.81.81Z"/>
      <path class="cls-1" d="M13.24,18.38H1.62V3.51c0-.45-.36-.81-.81-.81s-.81.36-.81.81v15.68c0,.45.36.81.81.81h12.43c.45,0,.81-.36.81-.81,0-.45-.36-.81-.81-.81Z"/>
    </g>
  </g>
</svg>