<?xml version="1.0" encoding="UTF-8"?>
<svg id="Layer_2" data-name="Layer 2" xmlns="http://www.w3.org/2000/svg" viewBox="0 0 22.51 15">
  <defs>
    <style>
      .cls-1 {
        fill: #2e6cb7;
      }
    </style>
  </defs>
  <g id="Layer_1-2" data-name="Layer 1">
    <g id="Franstek">
      <path class="cls-1" d="M21.21,6.13l-.24-.74c-.08-.25-.07-.48-.03-.67.09-.44.04-.89-.22-1.25-.08-.11-.16-.2-.23-.26-.15-.14-.23-.34-.23-.54h0c0-.9-.42-1.7-1.06-2.2-.44-.34-.98-.49-1.52-.49h-.02c-.62,0-1.22.2-1.7.62-.56.5-.91,1.24-.91,2.06,0,.21-.09.41-.23.54-.07.06-.14.14-.23.26-.26.35-.32.82-.22,1.25.04.19.05.42-.03.67l-.23.69c-.23.71.27,1.45.99,1.45h1.46c-.48-.49-.84-1.23-.89-2.08,0-.08,0-.16,0-.24,0-.6.25-1.16.65-1.4.29-.17.48-.5.72-1.22,0,0,.07,1.43,1.13,1.09.56-.18.83-.49,1.18.12.2.35.31.8.31,1.25v.54c0,.54-.13,1.05-.35,1.46-.1.19-.22.35-.35.5h1.28c.69,0,1.18-.71.95-1.4v-.03Z"/>
      <path class="cls-1" d="M21.49,9.12c-.07-.03-1.07-.32-1.74-.6-.08-.03-.14-.06-.21-.08h-.05l.14.67.12.58c.02.1-.02.19-.11.23l-.6.34c-.08.05-.13.15-.1.25l.14.52c.02.08,0,.17-.06.22l-.79.98-.14-2.22c-.02-.08,0-.17.04-.24l.24-.44c.06-.11.06-.25,0-.36l-.2-.37c-.06-.11-.17-.18-.3-.18h-.41c-.12,0-.24.07-.3.18l-.2.37c-.06.11-.06.25,0,.36l.24.44c.04.08.05.16.04.24l-.14,2.22-.79-.98c-.06-.06-.08-.14-.06-.22l.14-.52c.02-.1-.02-.2-.1-.25l-.61-.34c-.08-.05-.12-.14-.11-.23l.11-.53.14-.71h-.05c-.07.03-.14.06-.21.08-.34.14-.95.29-1.23.4,0,0-.02,0-.03.02-.13.05-.23.1-.32.13-.1.04-.15.06-.16.06-.44.19-1.02.79-1.02,1.67v3.02c0,.61.47,1.1,1.05,1.1h7.59c.58,0,1.04-.5,1.04-1.1v-3.02c0-.77-.47-1.43-1.02-1.67h0Z"/>
      <path class="cls-1" d="M10.84,11.47v2.85c0,.38-.29.68-.65.68h-4.03l-.27-3.24h0c-.02-.14.02-.28.11-.39,0,0,.02-.02.02-.02l.35-.64c.05-.09.05-.19,0-.28l-.35-.64c-.05-.09-.14-.14-.23-.14h-.7c-.1,0-.18.05-.23.14l-.35.64c-.05.09-.05.19,0,.28l.35.64s0,.02.02.02c.08.11.12.25.11.38h0l-.27,3.25H.65c-.36,0-.65-.31-.65-.68v-2.85c0-.95.54-1.8,1.34-2.18.13-.06.26-.11.39-.14l1.49-.56s0-.03.02-.05l.26-.69c.05-.14.21-.2.33-.12l.95.6.64.41.64-.41.95-.6c.12-.08.29-.02.33.11l.26.69s.02.03.02.05l1.49.56c.14.04.27.08.39.14.8.38,1.34,1.22,1.34,2.18h.02Z"/>
      <path class="cls-1" d="M8.01,2.79v.75c0,.19-.02.36-.03.53-.04.29-.1.56-.17.83-.17.57-.44,1.1-.79,1.55-.06.08-.12.15-.18.22l-.21.23c-.27.31-.65.49-1.05.49h-.32c-.4,0-.78-.18-1.05-.49l-.21-.23c-.06-.07-.12-.14-.18-.22-.23-.3-.44-.64-.59-1-.2-.44-.32-.92-.38-1.4-.02-.17-.04-.34-.04-.5v-.75c0-.26.03-.51.1-.75C3.23.89,4.26.08,5.42.08s2.18.81,2.49,1.98c.07.23.1.48.1.73Z"/>
    </g>
  </g>
</svg>