<?xml version="1.0" encoding="UTF-8"?>
<svg id="Layer_2" data-name="Layer 2" xmlns="http://www.w3.org/2000/svg" viewBox="0 0 19.98 20">
  <defs>
    <style>
      .cls-1 {
        fill: #ff3278;
      }

      .cls-2 {
        fill: #4678be;
      }
    </style>
  </defs>
  <g id="Layer_1-2" data-name="Layer 1">
    <g id="uuid-06f0753f-9d28-4889-9ae7-e835d55d2d7d" data-name="Layer 1-2">
      <g id="icons">
        <g>
          <g id="Franstek">
            <path class="cls-2" d="M19.7,10.69l-.89-.42c-.22-.11-.37-.36-.38-.61,0,0,0-.11-.02-.38v-.09c-.02-.11.13-.29.32-.41l.84-.53c.19-.11.31-.4.24-.63l-.5-1.52c-.09-.21-.34-.37-.57-.36l-.98.07c-.22.02-.51-.11-.61-.28-.11-.17-.32-.76-.22-.96l.46-.87c.11-.2.06-.51-.09-.66l-1.18-1.06c-.18-.13-.48-.16-.67-.02l-.81.55c-.19.13-.48.16-.66.06-.17-.09-.65-.51-.66-.73l-.03-.98c0-.22-.2-.46-.41-.53L11.29,0c-.22-.03-.5.11-.59.32l-.42.89c-.11.21-.36.37-.61.38,0,0-.11,0-.38.02h-.09c-.11.02-.29-.13-.41-.32l-.53-.84c-.11-.19-.4-.31-.63-.24l-1.52.5c-.22.09-.37.34-.36.56l.07.98c.02.22-.11.51-.28.61-.17.11-.75.32-.96.21l-.87-.46c-.2-.11-.51-.06-.66.09l-1.06,1.18c-.13.18-.16.48-.02.67l.55.81c.13.19.16.48.06.66-.09.17-.51.65-.73.66l-.98.03c-.22,0-.46.2-.53.41L0,8.72c-.03.22.11.5.32.59l.89.42c.21.09.37.36.38.61,0,0,0,.11.02.38v.09c.02.11-.13.29-.32.41l-.84.53c-.19.11-.31.4-.24.63l.5,1.52c.09.21.34.37.56.36l.98-.07c.22-.02.51.11.61.28.11.17.32.76.21.96l-.46.87c-.11.2-.06.51.09.66l1.18,1.06c.18.13.48.16.67.02l.81-.55c.19-.13.48-.16.66-.06.17.09.65.51.66.73l.03.98c0,.22.2.46.41.53l1.56.32c.22.03.5-.11.59-.32l.42-.89c.09-.22.36-.37.61-.38,0,0,.11,0,.38-.02h.09c.11-.02.29.13.41.32l.53.84c.11.19.4.31.63.24l1.52-.5c.22-.09.37-.34.36-.56l-.07-.98c-.02-.22.11-.51.28-.61.17-.11.76-.32.96-.21l.87.46c.2.11.51.06.66-.09l1.06-1.18c.13-.18.16-.48.02-.67l-.55-.81c-.13-.19-.16-.48-.06-.66s.51-.65.73-.66l.98-.03c.22,0,.46-.2.53-.41l.32-1.56c.03-.22-.11-.5-.32-.59l.02-.02h.02ZM10.01,16.79c-3.73,0-6.78-3.04-6.78-6.78s3.04-6.78,6.78-6.78,6.78,3.04,6.78,6.78-3.04,6.78-6.78,6.78Z"/>
          </g>
          <path class="cls-1" d="M6.73,6.34h7.25c-.42.48-.67.73-.73.76h-1.94c.26.22.44.5.54.81h2.07s.04,0,.04.02c-.46.5-.7.73-.71.73h-1.35c-.03.26-.2.55-.52.92-.41.36-.81.59-1.18.71-.71.24-1.37.36-2.01.36h0s.16.19.48.46l3.58,3.08v.13s0,.02-.04.02h-1.58c-2.84-2.36-4.26-3.53-4.26-3.54v-.73c.26.02.56.04.9.04,1.58,0,2.58-.36,2.96-1.1.06-.11.09-.22.09-.33h-4.3s-.03,0-.03-.02c.48-.5.72-.73.73-.73h3.43c-.19-.3-.57-.52-1.14-.67-.4-.09-.76-.13-1.09-.13h-1.92v-.03c.46-.5.7-.73.72-.73h0l.02-.02h0Z"/>
        </g>
      </g>
    </g>
  </g>
</svg>