<?xml version="1.0" encoding="UTF-8"?>
<svg id="Layer_2" data-name="Layer 2" xmlns="http://www.w3.org/2000/svg" viewBox="0 0 19.79 20">
  <defs>
    <style>
      .cls-1 {
        fill: #ff3278;
      }

      .cls-2 {
        fill: #2e6cb7;
      }
    </style>
  </defs>
  <g id="Layer_1-2" data-name="Layer 1">
    <g>
      <path class="cls-2" d="M18.75,2.03h-2.83V.66c0-.36-.29-.66-.66-.66s-.66.29-.66.66v1.37H4.7V.66c0-.36-.29-.66-.66-.66s-.66.29-.66.66v1.37H1.04c-.57,0-1.04.47-1.04,1.04v15.89c0,.58.47,1.04,1.04,1.04h17.71c.57,0,1.04-.46,1.04-1.04V3.07c0-.57-.47-1.04-1.04-1.04ZM18.8,19.04H.99V6.34h17.81v12.7Z"/>
      <g>
        <path class="cls-1" d="M5.64,10.4c0-.53.33-.8,1-.8h1.73c.18,0,.27-.07.27-.21v-.77c0-.14-.09-.21-.27-.21h-2.39v-.56h2.59c.67,0,1,.27,1,.8v.73c0,.53-.33.8-1,.8h-1.73c-.18,0-.27.07-.27.21v1.28h2.99v.57h-3.92v-1.83Z"/>
        <path class="cls-1" d="M10.36,8.79c0-.64.4-.96,1.2-.96h2.39v.56h-2.13c-.35,0-.53.14-.53.43v.77h2c.67,0,1,.27,1,.8v1.03c0,.53-.33.8-1,.8h-1.93c-.67,0-1-.27-1-.8v-2.63ZM11.56,11.66h1.53c.18,0,.27-.07.27-.21v-1.07c0-.14-.09-.21-.27-.21h-1.8v1.28c0,.14.09.21.27.21Z"/>
        <path class="cls-1" d="M4.97,16.37h.62v.52c0,.19.12.28.35.28h.93c.12,0,.18-.05.18-.14v-2.41h.62v2.4c0,.35-.22.53-.67.53h-1.24c-.53,0-.8-.21-.8-.64v-.54Z"/>
        <path class="cls-1" d="M9.39,14.62h.71l1.38,2.93h-.63l-.34-.73h-1.52l-.34.73h-.63l1.38-2.93ZM10.32,16.44l-.58-1.24-.58,1.24h1.16Z"/>
        <path class="cls-1" d="M11.85,14.62h.71l1.64,2.17v-2.17h.62v2.93h-.71l-1.64-2.17v2.17h-.62v-2.93Z"/>
      </g>
    </g>
  </g>
</svg>