<?xml version="1.0" encoding="UTF-8"?>
<svg id="Layer_2" data-name="Layer 2" xmlns="http://www.w3.org/2000/svg" viewBox="0 0 20 20">
  <defs>
    <style>
      .cls-1 {
        fill: #ff3278;
      }

      .cls-2 {
        fill: #2e6cb7;
      }
    </style>
  </defs>
  <g id="Layer_1-2" data-name="Layer 1">
    <g>
      <path class="cls-1" d="M13.1,0c-1.9,0-3.45,1.54-3.45,3.45s1.55,3.44,3.45,3.44,3.45-1.54,3.45-3.44-1.55-3.45-3.45-3.45ZM12.07,1.03c.57,0,1.03.46,1.03,1.04s-.46,1.03-1.03,1.03-1.04-.46-1.04-1.03.46-1.04,1.04-1.04ZM11.62,5.41l-.49-.48,3.45-3.45.49.48-3.45,3.45ZM14.13,5.86c-.57,0-1.03-.46-1.03-1.04s.46-1.03,1.03-1.03,1.04.46,1.04,1.03-.46,1.04-1.04,1.04Z"/>
      <path class="cls-2" d="M15.17,11.72v.69h.69v-.69h-.69ZM13.79,11.72v.69h.69v-.69h-.69ZM12.41,11.72v.69h.69v-.69h-.69ZM11.72,8.96v-1.03h-.69v.9l-.69.81-.69-.81v-.9h-.69v1.03c0,.08.03.16.09.23l.84.98-.84.98c-.06.06-.09.14-.09.23v1.03h.69v-.91l.69-.8.69.8v.91h.69v-1.03c0-.09-.03-.17-.08-.23l-.84-.98.84-.98c.05-.07.08-.15.08-.23ZM6.89,7.93c-.76,0-1.38.62-1.38,1.38v3.1h.69v-1.38h1.38v1.38h.69v-3.1c0-.76-.62-1.38-1.38-1.38ZM7.58,10.34h-1.38v-1.03c0-.38.31-.69.69-.69s.69.31.69.69v1.03ZM2.07,7.93v.69h1.37v3.79h.69v-3.79h1.38v-.69h-3.44Z"/>
      <circle class="cls-1" cx="14.14" cy="4.82" r=".34"/>
      <path class="cls-2" d="M.69,3.79c0-.19.15-.34.34-.34h7.93c0-.23.02-.46.06-.69H.69c-.38,0-.69.31-.69.69v9.66h.69V3.79Z"/>
      <circle class="cls-1" cx="12.07" cy="2.07" r=".34"/>
      <rect class="cls-2" x="5.86" y="19.31" width="8.28" height=".69"/>
      <path class="cls-2" d="M0,13.79v1.38c0,.38.31.69.69.69h18.62c.38,0,.69-.31.69-.69v-1.38H0ZM10.34,15.17h-.69v-.69h.69v.69Z"/>
      <path class="cls-2" d="M8.97,16.55v1.03c0,.1-.05.2-.13.27l-.96.77h4.24l-.96-.77c-.08-.07-.13-.16-.13-.27v-1.03h-2.07Z"/>
      <path class="cls-2" d="M19.31,2.76h-2.13c.04.23.06.46.06.69h1.72c.19,0,.34.15.34.34v9.31h.69V3.45c0-.38-.31-.69-.69-.69Z"/>
    </g>
  </g>
</svg>