<?xml version="1.0" encoding="UTF-8"?>
<svg id="Layer_2" data-name="Layer 2" xmlns="http://www.w3.org/2000/svg" viewBox="0 0 77.69 57.58">
  <defs>
    <style>
      .cls-1 {
        fill: #d2d2ff;
      }

      .cls-2 {
        fill: #fff;
      }

      .cls-3 {
        fill: none;
        stroke: #fff;
        stroke-miterlimit: 10;
        stroke-width: 1.51px;
      }
    </style>
  </defs>
  <g id="Layer_5" data-name="Layer 5">
    <g id="Assets">
      <g>
        <path class="cls-1" d="M26.49,5.01c-1.77,0-3.5-1.18-4.85-2.32l-1.66-1.38C18.96.46,17.74,0,16.48,0H2.33C1.04-.01,0,1.02,0,2.32v52.14c0,1.73,1.4,3.12,3.12,3.12h71.45c1.73,0,3.12-1.4,3.12-3.12V8.13c0-1.73-1.4-3.12-3.12-3.12,0,0-48.08,0-48.08,0Z"/>
        <g>
          <path class="cls-2" d="M33.3,36.84l4.62-4.74-4.33-4.52h1.9l1.86,1.96c.26.26.46.49.63.68s.32.36.46.53c.13.17.27.36.43.58.14-.22.29-.4.43-.58s.29-.35.46-.53c.17-.19.39-.42.63-.68l1.9-1.96h1.86l-4.33,4.46,4.58,4.78h-1.9l-2.26-2.35c-.32-.35-.58-.62-.78-.83s-.4-.49-.62-.79c-.2.29-.42.55-.62.78s-.46.5-.79.85l-2.27,2.35h-1.87.01Z"/>
          <rect class="cls-3" x="28.86" y="22.23" width="19.98" height="19.98" rx="1" ry="1"/>
        </g>
      </g>
    </g>
  </g>
</svg>