<?xml version="1.0" encoding="UTF-8"?>
<svg id="Layer_2" data-name="Layer 2" xmlns="http://www.w3.org/2000/svg" viewBox="0 0 22.18 20">
  <defs>
    <style>
      .cls-1 {
        fill: #ff3278;
      }

      .cls-2 {
        fill: #2e6cb7;
      }
    </style>
  </defs>
  <g id="Layer_1-2" data-name="Layer 1">
    <g id="Franstek">
      <path class="cls-2" d="M9.65,17.54v1.98c0,.26-.26.48-.58.48h-3.59l-.24-2.26h0c-.02-.1.02-.19.09-.27,0,0,0,0,0-.02l.31-.45c.04-.06.04-.13,0-.19l-.31-.44c-.04-.06-.12-.1-.2-.1h-.62c-.08,0-.16.04-.2.1l-.31.44c-.04.06-.04.13,0,.19l.31.45s0,0,0,.02c.07.08.11.17.09.27h0l-.24,2.26H.58c-.32,0-.58-.21-.58-.48v-1.98c0-.66.48-1.25,1.19-1.52.11-.04.23-.07.35-.1l1.33-.39s0-.02,0-.03l.23-.48c.05-.1.19-.14.29-.08l.85.42.57.28.57-.28.84-.42c.11-.05.25-.02.3.08l.23.48s0,.02,0,.03l1.33.39c.12.03.24.06.35.1.71.26,1.19.85,1.19,1.52h0Z"/>
      <path class="cls-2" d="M7.13,11.49v.52c0,.13,0,.25-.03.37-.03.2-.08.39-.15.58-.15.4-.39.76-.7,1.08-.05.05-.1.1-.16.15l-.19.16c-.24.22-.58.34-.94.34h-.28c-.35,0-.7-.12-.94-.34l-.19-.16c-.06-.05-.11-.1-.16-.15-.21-.21-.38-.44-.52-.69-.17-.31-.29-.64-.34-.98-.02-.12-.03-.24-.03-.35v-.52c0-.18.03-.35.09-.52.28-.81,1.19-1.37,2.22-1.37s1.94.57,2.22,1.38c.06.16.09.34.09.51h0Z"/>
      <path class="cls-2" d="M10.41,2.38c-.29,0-.52.23-.52.52s.23.52.52.52.52-.23.52-.52-.23-.52-.52-.52Z"/>
      <path class="cls-2" d="M6.86,4.19c.06,0,.12-.02.17-.05.08-.05.13-.12.16-.21.02-.09,0-.18-.03-.26-.06-.1-.17-.17-.29-.17-.06,0-.12.02-.17.05-.08.05-.13.12-.16.21-.02.09,0,.18.03.26.06.1.17.17.29.17Z"/>
      <path class="cls-2" d="M4.08,6.75s.11.05.17.05c.12,0,.23-.07.29-.17.05-.08.06-.17.03-.26-.02-.09-.08-.16-.16-.21-.05-.03-.11-.05-.17-.05-.12,0-.23.07-.29.17-.05.08-.06.17-.03.26.02.09.08.16.16.21Z"/>
      <path class="cls-2" d="M10.41,17.63c.29,0,.52-.23.52-.52s-.23-.52-.52-.52-.52.23-.52.52.23.52.52.52Z"/>
      <path class="cls-2" d="M13.96,15.82c-.06,0-.12.02-.17.05-.08.05-.13.12-.16.21-.02.09,0,.18.03.26.06.1.17.17.29.17.06,0,.12-.02.17-.05.08-.05.13-.12.16-.21.02-.09,0-.18-.03-.26-.06-.1-.17-.17-.29-.17Z"/>
      <path class="cls-2" d="M16.74,13.26s-.11-.05-.17-.05c-.12,0-.23.07-.29.17-.05.08-.06.17-.03.26.02.09.08.16.16.21.05.03.11.05.17.05.12,0,.23-.07.29-.17.05-.08.06-.17.03-.26-.02-.09-.08-.16-.16-.21Z"/>
      <path class="cls-2" d="M16.86,6.28c-.06-.1-.17-.17-.29-.17-.06,0-.12.02-.17.05-.08.05-.13.12-.16.21s0,.18.03.26c.06.1.17.17.29.17.06,0,.12-.02.17-.05.08-.05.13-.12.16-.21.02-.09,0-.18-.03-.26Z"/>
      <path class="cls-2" d="M14.13,3.55s-.11-.05-.17-.05c-.12,0-.23.07-.29.17-.05.08-.06.17-.03.26.02.09.08.16.16.21.05.03.11.05.17.05.12,0,.23-.07.29-.17.05-.08.06-.17.03-.26-.02-.09-.08-.16-.16-.21Z"/>
      <polygon class="cls-1" points="10.64 4.02 10.43 4.02 10.26 9.46 10.04 9.45 10.04 10.04 10.24 10.03 10.24 10.24 10.84 10.24 10.83 10 13.99 9.86 13.99 9.65 10.81 9.49 10.64 4.02"/>
      <path class="cls-2" d="M10.4,20c2.88,0,5.61-1.24,7.52-3.41l-.75-1.06c-1.67,2.04-4.13,3.21-6.76,3.21v1.26h0Z"/>
      <path class="cls-2" d="M1.95,12.16c-.18-.69-.27-1.42-.27-2.16,0-4.82,3.91-8.74,8.73-8.74,3.58,0,6.76,2.15,8.11,5.48.16.4.29.81.39,1.22.1.4.16.81.2,1.22l.05.56h-2.01l2.52,3.55,2.52-3.55h-1.76l-.03-.48c-.03-.36-.07-.73-.14-1.09-.07-.37-.16-.73-.27-1.09-.61-2-1.88-3.81-3.57-5.08-1.74-1.31-3.82-2.01-6-2.01C4.9,0,.41,4.5.41,10c0,.85.11,1.67.31,2.46l1.23-.3Z"/>
    </g>
  </g>
</svg>