<?xml version="1.0" encoding="UTF-8"?>
<svg id="Layer_2" data-name="Layer 2" xmlns="http://www.w3.org/2000/svg" viewBox="0 0 18.4 16.79">
  <defs>
    <style>
      .cls-1 {
        fill: #ff3278;
      }

      .cls-2 {
        fill: #2e6cb7;
      }
    </style>
  </defs>
  <g id="Layer_1-2" data-name="Layer 1">
    <g>
      <path class="cls-1" d="M10.2,3.5s.09-.02.13-.02c0,0,.02,0,.03,0,.04,0,.09-.01.13-.02,0,0,.02,0,.03,0,.04,0,.09-.01.13-.01,0,0,.02,0,.03,0,.02,0,.03,0,.05,0V0s-.01,0-.02,0c-.02,0-.05,0-.07,0-.03,0-.05,0-.08,0-.02,0-.05,0-.07,0-.03,0-.05,0-.08,0-.02,0-.05,0-.07,0-.03,0-.05,0-.08,0-.02,0-.05,0-.07,0-.03,0-.05,0-.08,0-.02,0-.05,0-.07,0-.03,0-.05,0-.08.01-.02,0-.05,0-.07.01-.03,0-.05,0-.08.01-.02,0-.05,0-.07.01-.03,0-.05,0-.08.02-.02,0-.05,0-.07.01-.03,0-.05.01-.08.02-.02,0-.04,0-.07.01-.03,0-.05.01-.08.02-.02,0-.04.01-.07.02-.03,0-.05.01-.08.02-.02,0-.04.01-.07.02-.03,0-.05.01-.08.02-.02,0-.04.01-.06.02-.03,0-.05.02-.08.02-.02,0-.04.01-.06.02-.03,0-.05.02-.08.03-.02,0-.04.01-.06.02-.03,0-.05.02-.08.03-.02,0-.04.01-.06.02-.03,0-.05.02-.08.03-.02,0-.04.02-.06.02-.03.01-.05.02-.08.03-.02,0-.04.02-.06.02-.03.01-.05.02-.08.03-.02,0-.04.02-.06.03-.03.01-.05.02-.08.04-.02,0-.04.02-.06.03-.03.01-.05.02-.08.04-.02,0-.04.02-.06.03-.03.01-.05.03-.08.04-.02,0-.04.02-.05.03-.03.01-.05.03-.08.04-.02,0-.04.02-.05.03-.03.01-.05.03-.08.04-.02,0-.03.02-.05.03-.03.02-.05.03-.08.05-.02,0-.03.02-.05.03-.03.02-.06.03-.09.05-.01,0-.03.02-.04.03-.03.02-.06.04-.09.06-.01,0-.02.01-.03.02-.04.02-.07.05-.11.07,0,0,0,0-.01,0-.04.03-.08.06-.12.09,0,0,0,0,0,0-.04.03-.08.06-.12.09-.01,0-.02.02-.03.03-.03.02-.06.04-.08.06-.01.01-.03.02-.04.03-.02.02-.05.04-.07.06-.02.01-.03.03-.05.04-.02.02-.05.04-.07.06-.02.01-.03.03-.05.04-.02.02-.04.04-.06.05-.02.01-.03.03-.05.04-.02.02-.04.04-.06.05-.02.02-.03.03-.05.05-.02.02-.04.04-.06.05-.02.02-.03.03-.05.05-.01.01-.03.03-.04.04l2.31,2.42s.03-.03.05-.05c0,0,.02-.02.03-.02.03-.03.07-.06.1-.09,0,0,.01,0,.02-.01.04-.03.08-.06.12-.1,0,0,0,0,0,0,.21-.16.44-.3.68-.42h0s.09-.04.14-.07c0,0,0,0,.01,0,.04-.02.09-.04.13-.05,0,0,.01,0,.02,0,.04-.02.09-.03.13-.05,0,0,.02,0,.02,0,.04-.01.08-.03.13-.04,0,0,.02,0,.03,0,.04-.01.08-.02.13-.03,0,0,.02,0,.03,0,.04-.01.08-.02.13-.03,0,0,.02,0,.03,0h0ZM11.27,0v3.43c.33.02.65.09.96.19l.76-1.52c.13-.27.38-.39.59-.3.22.09.31.38.21.66l-.53,1.67c.16.11.32.23.46.37l2.31-2.42C14.77.85,13.11.07,11.27,0h0ZM7.24,5.92s0-.02.01-.03c0-.02.02-.03.02-.05.02-.03.03-.07.05-.1,0-.02.02-.03.03-.05.02-.03.03-.06.05-.09,0-.02.02-.03.03-.05.02-.03.03-.06.05-.09.01-.02.02-.03.03-.05.02-.03.04-.06.06-.09.01-.02.02-.03.03-.05.02-.03.04-.06.06-.09.01-.02.02-.03.03-.05.02-.03.04-.06.06-.08.01-.01.02-.03.03-.04.02-.03.04-.06.07-.08,0,0,0-.01.01-.02l-2.31-2.42s-.03.03-.04.04c-.02.02-.03.04-.05.06-.02.02-.03.04-.05.06-.02.02-.03.04-.05.06-.02.02-.03.04-.05.06-.02.02-.03.04-.05.06-.02.02-.03.04-.05.06-.02.02-.03.04-.05.06-.01.02-.03.04-.04.06-.02.02-.03.04-.05.06-.01.02-.03.04-.04.06-.02.02-.03.04-.05.07-.01.02-.03.04-.04.06-.02.02-.03.04-.04.07-.01.02-.03.04-.04.06-.01.02-.03.05-.04.07-.01.02-.03.04-.04.06-.01.02-.03.05-.04.07-.01.02-.03.04-.04.06-.01.02-.03.05-.04.07-.01.02-.02.04-.04.06-.01.02-.03.05-.04.07-.01.02-.02.04-.03.06-.01.02-.03.05-.04.07-.01.02-.02.04-.03.06-.01.02-.03.05-.04.07-.01.02-.02.04-.03.06-.01.03-.03.05-.04.08-.01.02-.02.04-.03.06-.01.03-.02.05-.04.08,0,.02-.02.04-.03.06-.01.03-.02.05-.03.08,0,.02-.02.04-.03.07-.01.03-.02.05-.03.08,0,.02-.02.04-.03.07-.01.03-.02.05-.03.08,0,.02-.02.04-.02.07-.01.03-.02.05-.03.08,0,.02-.02.04-.02.06-.01.03-.02.06-.03.08,0,0,0,0,0,.01.31-.11.65-.17,1-.17.86,0,1.65.36,2.22.95h0ZM16.42,2.48l-2.31,2.42c.59.71.96,1.62,1.02,2.58h3.27c-.07-1.93-.81-3.68-1.98-5h0ZM12.61,4.1l-1.54,3.09c-.04.08-.12.14-.2.15-.3.05-.54.25-.66.54-.18.45.02.98.46,1.17.21.09.44.09.65,0s.37-.26.46-.48c.12-.29.08-.62-.1-.87-.05-.08-.07-.17-.04-.26l1.04-3.27s0,0,0,0l.16-.51-.23.45s0,0,0,0h0Z"/>
      <path class="cls-2" d="M9.63,14.22v2.07c0,.27-.26.5-.58.5h-3.58l-.24-2.37h0c-.02-.1.02-.2.09-.28,0,0,0-.01,0-.02l.31-.47c.04-.06.04-.14,0-.2l-.31-.46c-.04-.06-.12-.1-.2-.1h-.62c-.08,0-.16.04-.2.1l-.31.46c-.04.06-.04.14,0,.2l.31.47s0,.01,0,.02c.07.08.11.18.09.28h0l-.24,2.37H.58c-.32,0-.58-.22-.58-.5v-2.07c0-.69.48-1.31,1.19-1.59.11-.04.23-.07.35-.1l1.33-.41s0-.02,0-.03l.23-.5c.05-.1.19-.15.29-.08l.85.44.57.29.57-.29.84-.44c.11-.05.25-.02.3.08l.23.5s0,.02,0,.03l1.33.41c.12.03.24.06.35.1.71.27,1.19.89,1.19,1.59h0Z"/>
      <path class="cls-2" d="M7.11,7.88v.54c0,.14,0,.26-.03.39-.03.21-.08.41-.15.61-.15.42-.39.8-.7,1.13-.05.05-.1.1-.16.16l-.19.17c-.24.23-.58.36-.94.36h-.28c-.35,0-.7-.13-.94-.36l-.19-.17c-.06-.05-.11-.1-.16-.16-.21-.22-.38-.46-.52-.72-.17-.32-.29-.67-.34-1.03-.02-.13-.03-.25-.03-.37v-.54c0-.19.03-.37.09-.54.28-.85,1.19-1.43,2.21-1.43s1.93.6,2.21,1.44c.06.17.09.36.09.53h0Z"/>
    </g>
  </g>
</svg>