<?xml version="1.0" encoding="UTF-8"?>
<svg id="Layer_2" data-name="Layer 2" xmlns="http://www.w3.org/2000/svg" viewBox="0 0 19.83 10.54">
  <defs>
    <style>
      .cls-1 {
        fill: #4678c8;
      }
    </style>
  </defs>
  <g id="Layer_3" data-name="Layer 3">
    <g id="s3">
      <path class="cls-1" d="M0,5.27c0-.71.14-1.39.4-2.05.26-.62.62-1.19,1.1-1.67.46-.48,1.02-.87,1.63-1.13C3.76.14,4.43,0,5.13,0h10.63c.56,0,1.08.11,1.6.33.5.22.93.51,1.3.9.37.39.67.84.87,1.33.42,1.01.42,2.17,0,3.18-.2.48-.48.9-.84,1.27-.36.37-.77.67-1.24.87-.48.22-.99.33-1.53.33H7.37c-.77,0-1.5-.31-2.05-.87-1.08-1.1-1.08-3.04,0-4.15.54-.56,1.27-.87,2.05-.87h5.48c.34,0,.62.28.62.62s-.28.62-.62.62h-5.48c-.43,0-.84.17-1.15.5-.62.65-.62,1.78,0,2.42.31.33.71.5,1.15.5h8.55c.36,0,.71-.08,1.04-.22.33-.14.6-.34.85-.59.25-.25.43-.56.57-.88.29-.7.28-1.53,0-2.23-.14-.36-.36-.67-.62-.95-.26-.26-.56-.48-.9-.62-.34-.15-.71-.23-1.1-.23H5.16c-.53,0-1.04.11-1.5.31-.46.2-.88.5-1.24.85-.36.37-.64.81-.84,1.29-.42.99-.42,2.15,0,3.15.2.48.48.91.84,1.29s.77.65,1.24.87c.48.2.99.31,1.5.31h10.38c.34,0,.62.28.62.62s-.28.62-.62.62H5.14c-.7,0-1.36-.14-2-.42-.62-.26-1.16-.65-1.63-1.13s-.84-1.05-1.1-1.67C.15,6.66.02,5.98.02,5.27h-.02Z"/>
    </g>
  </g>
</svg>