<?xml version="1.0" encoding="UTF-8"?>
<svg id="Layer_2" data-name="Layer 2" xmlns="http://www.w3.org/2000/svg" viewBox="0 0 18.18 20">
  <defs>
    <style>
      .cls-1 {
        fill: #2e6cb7;
      }
    </style>
  </defs>
  <g id="Layer_1-2" data-name="Layer 1">
    <g id="Franstek">
      <path class="cls-1" d="M16.81,0H1.35C.63,0,0,.64,0,1.36v17.27c0,.72.63,1.36,1.35,1.36h15.46c.72,0,1.36-.64,1.36-1.36V1.36c0-.72-.64-1.36-1.36-1.36ZM17.26,18.64c0,.27-.18.45-.45.45H1.35c-.27,0-.45-.17-.45-.45V1.36c0-.27.18-.46.45-.46h15.46c.27,0,.45.18.45.46v17.27Z"/>
      <path class="cls-1" d="M15.72,1.64H2.45c-.5,0-.92.41-.92.92v14.89c0,.5.41.92.92.92h13.26c.5,0,.92-.41.92-.92V2.55c0-.5-.41-.92-.92-.92ZM11.9,14.18l-2.36-2.45.09-.09c-.09-.09-.27-.37-.54-.37-.18,0-.37.27-.55.37l-2.45,2.45V5.9h5.81v8.27Z"/>
    </g>
  </g>
</svg>