<?xml version="1.0" encoding="UTF-8"?>
<svg id="Layer_2" data-name="Layer 2" xmlns="http://www.w3.org/2000/svg" viewBox="0 0 17.39 19.2">
  <defs>
    <style>
      .cls-1 {
        fill: #ff3278;
      }

      .cls-2 {
        fill: #2e6cb7;
      }
    </style>
  </defs>
  <g id="Layer_1-2" data-name="Layer 1">
    <g id="landing_page" data-name="landing page">
      <g>
        <g>
          <path class="cls-2" d="M16.05.48H1.34C.84.48.43.93.43,1.48v16.24c0,.55.41,1,.91,1h14.71c.5,0,.91-.45.91-1V1.48c0-.55-.41-1-.91-1ZM16.51,17.72c0,.28-.21.51-.46.51H1.34c-.25,0-.46-.23-.46-.51V1.48c0-.28.21-.51.46-.51h14.71c.25,0,.46.23.46.51v16.24Z"/>
          <path class="cls-2" d="M16.05,0H1.34C.61,0,0,.67,0,1.48v16.24c0,.81.61,1.48,1.34,1.48h14.71c.74,0,1.34-.67,1.34-1.48V1.48c0-.81-.6-1.48-1.34-1.48ZM16.51,17.72c0,.28-.21.51-.46.51H1.34c-.25,0-.46-.23-.46-.51V1.48c0-.28.21-.51.46-.51h14.71c.25,0,.46.23.46.51v16.24Z"/>
        </g>
        <g>
          <path class="cls-1" d="M14.04,7.2c0,.24-.18.43-.39.43H3.74c-.21,0-.38-.19-.38-.43s.17-.42.38-.42h9.91c.21,0,.39.19.39.42Z"/>
          <path class="cls-1" d="M14.04,11c0,.23-.18.42-.39.42H3.74c-.21,0-.38-.19-.38-.42s.17-.43.38-.43h9.91c.21,0,.39.19.39.43Z"/>
          <path class="cls-1" d="M14.04,14.79c0,.23-.18.42-.39.42H3.74c-.21,0-.38-.19-.38-.42s.17-.43.38-.43h9.91c.21,0,.39.19.39.43Z"/>
        </g>
        <path class="cls-1" d="M9.08,3.41c0,.24-.17.43-.39.43H3.74c-.21,0-.38-.19-.38-.43s.17-.42.38-.42h4.95c.22,0,.39.19.39.42Z"/>
      </g>
    </g>
  </g>
</svg>