<?xml version="1.0" encoding="UTF-8"?>
<svg id="Layer_2" data-name="Layer 2" xmlns="http://www.w3.org/2000/svg" viewBox="0 0 20 20">
  <defs>
    <style>
      .cls-1 {
        fill: #2e6cb7;
      }
    </style>
  </defs>
  <g id="Layer_1-2" data-name="Layer 1">
    <g id="_07-Salary" data-name=" 07-Salary">
      <path class="cls-1" d="M19.24,8.33l-.72-.46c-.16-.1-.36-.05-.46.1-.1.15-.05.36.1.46l.72.46c.06.04.11.08.15.13l-7.66,4.92-.58-.37c-.49-.31-1.1-.31-1.59,0l-.58.37L.97,9.01s.1-.09.15-.13l.58-.37c.16-.1.2-.3.1-.46-.1-.16-.3-.2-.46-.1,0,0,0,0,0,0l-.58.37C.29,8.63,0,9.16,0,9.73v8.61c0,.92.75,1.67,1.67,1.67h16.67c.92,0,1.67-.75,1.67-1.67v-8.61c0-.57-.29-1.1-.77-1.4ZM19.32,9.62s.01.07.01.11v8.61c0,.21-.07.42-.2.59l-7.15-4.59,7.33-4.71ZM.87,18.93c-.13-.17-.2-.38-.2-.59v-8.61s0-.07.01-.11l7.33,4.71L.87,18.93ZM1.67,19.33c-.06,0-.11,0-.17-.02l8.07-5.19c.26-.17.6-.17.87,0l8.07,5.19c-.06.01-.11.02-.17.02H1.67ZM9.48,7.04c-1.13-.63-2.55-.23-3.18.9-.63,1.13-.23,2.55.9,3.18,1.13.63,2.55.23,3.18-.9.3-.54.38-1.18.21-1.77-.17-.6-.57-1.1-1.11-1.4ZM8.8,10.68c-.89.25-1.81-.26-2.06-1.15-.25-.89.26-1.81,1.15-2.06.89-.25,1.81.26,2.06,1.15,0,0,0,0,0,0,.25.89-.26,1.81-1.15,2.06ZM12.59,11.85l-2.41-8.52c-.67.05-1.3-.3-1.61-.9l-3.91,1.11c.05.67-.3,1.3-.9,1.61l1.45,5.11c.05.18-.05.36-.23.41-.18.05-.36-.05-.41-.23h0l-1.53-5.4c-.05-.18.05-.36.23-.41.53-.15.84-.7.69-1.23,0,0,0,0,0,0-.05-.18.05-.36.23-.41l4.49-1.27c.18-.05.36.05.41.23h0c.15.53.7.84,1.23.69,0,0,0,0,0,0,.18-.05.36.05.41.23l2.49,8.81c.05.18-.05.36-.23.41-.03,0-.06.01-.09.01-.15,0-.28-.1-.32-.24ZM1.4,4.12c-.25-.89.26-1.81,1.15-2.06L9.6.06c.66-.19,1.37.05,1.78.6h4.28c.92,0,1.67.75,1.67,1.67v6.8c0,.18-.15.33-.33.33s-.33-.15-.33-.33V2.33c0-.55-.45-1-1-1h-3.97l.19.67h2.45c.18,0,.33.15.33.33,0,.55.45,1,1,1,.18,0,.33.15.33.33v6.32c0,.18-.15.33-.33.33s-.33-.15-.33-.33V3.97c-.65-.13-1.17-.65-1.3-1.3h-1.96l2.33,8.25c.05.18-.05.36-.23.41-.03,0-.06.01-.09.01-.15,0-.28-.1-.32-.24L11.02,1.39c-.15-.53-.7-.84-1.23-.69l-7.06,2c-.53.15-.84.7-.69,1.23l1.48,5.23c.05.18-.05.36-.23.41-.18.05-.36-.05-.41-.23h0l-1.48-5.23Z"/>
    </g>
  </g>
</svg>