<?xml version="1.0" encoding="UTF-8"?>
<svg id="Layer_2" data-name="Layer 2" xmlns="http://www.w3.org/2000/svg" viewBox="0 0 20.64 18.87">
  <defs>
    <style>
      .cls-1 {
        fill: #2e6cb7;
      }
    </style>
  </defs>
  <g id="Layer_1-2" data-name="Layer 1">
    <g id="landing_page" data-name="landing page">
      <path class="cls-1" d="M10.32,0C4.63,0,0,4.61,0,10.27v5.29c0,.29.24.53.53.53s.53-.24.53-.53v-.58h1.17v2.53c0,.76.62,1.36,1.37,1.36h1.67c.76,0,1.37-.62,1.37-1.36v-6.12c0-.76-.62-1.36-1.37-1.36h-1.67c-.76,0-1.37.62-1.37,1.36v2.53h-1.17v-3.64c.01-5.1,4.15-9.23,9.26-9.23s9.26,4.13,9.26,9.21v3.64h-1.17v-2.53c0-.76-.62-1.36-1.37-1.36h-1.67c-.76,0-1.37.62-1.37,1.36v6.12c0,.76.62,1.36,1.37,1.36h1.67c.76,0,1.37-.62,1.37-1.36v-2.53h1.17v.58c0,.29.24.53.53.53s.53-.24.53-.53v-5.29C20.64,4.61,16.01,0,10.32,0Z"/>
    </g>
  </g>
</svg>