<?xml version="1.0" encoding="UTF-8"?>
<svg id="Layer_2" data-name="Layer 2" xmlns="http://www.w3.org/2000/svg" viewBox="0 0 25.95 16">
  <defs>
    <style>
      .cls-1 {
        fill: #ff3278;
      }

      .cls-2 {
        fill: #2e6cb7;
      }
    </style>
  </defs>
  <g id="Layer_1-2" data-name="Layer 1">
    <g>
      <path class="cls-2" d="M3.42,6.05c-.11,0-.22-.04-.3-.12-.06-.05-.53-.54-.53-1.47,0-1.51,1.27-2.74,2.83-2.74h.4c1.56,0,2.83,1.23,2.83,2.74,0,.93-.48,1.41-.53,1.47-.08.08-.19.12-.3.12-1.4,0-2.43-.52-3-.89-.2.31-.58.65-1.26.87-.04.01-.09.02-.13.02h0ZM4.63,4.04c.11,0,.21.04.29.11,0,0,1.02.95,2.68,1.03.08-.13.18-.37.18-.72,0-1.03-.88-1.87-1.96-1.87h-.4c-1.08,0-1.96.84-1.96,1.87,0,.28.06.48.13.63.57-.27.6-.62.6-.64.01-.17.12-.32.28-.38.05-.02.11-.03.16-.03h0Z"/>
      <path class="cls-2" d="M5.62,8.65c-1.43,0-2.59-1.16-2.59-2.59v-.43c0-.24.19-.43.43-.43s.43.19.43.43v.43c0,.96.77,1.73,1.73,1.73s1.73-.77,1.73-1.73v-.43c0-.24.19-.43.43-.43s.43.19.43.43v.43c0,1.43-1.16,2.59-2.59,2.59Z"/>
      <path class="cls-2" d="M.43,16c-.24,0-.43-.19-.43-.43v-3.89c0-1.43,1.16-2.59,2.59-2.59h1.3c.24,0,.43-.19.43-.43v-.61c0-.24.19-.43.43-.43s.43.19.43.43v.61c0,.71-.58,1.3-1.3,1.3h-1.3c-.96,0-1.73.78-1.73,1.73v3.89c0,.24-.19.43-.43.43Z"/>
      <path class="cls-2" d="M5.62,11.68c-1.19,0-2.16-.97-2.16-2.16,0-.24.19-.43.43-.43s.43.19.43.43c0,.71.58,1.3,1.3,1.3s1.3-.58,1.3-1.3c0-.24.19-.43.43-.43s.43.19.43.43c0,1.19-.97,2.16-2.16,2.16Z"/>
      <path class="cls-2" d="M9.08,16c-.24,0-.43-.19-.43-.43v-3.03c0-.15.08-.29.2-.37s.29-.09.42-.02l2.56,1.28c.41.2.9.18,1.28-.07l2.06-1.71c.27-.22.43-.54.45-.9,0-.22-.03-.42-.13-.61l-2.68,2.29c-.16.13-.38.14-.54.02l-2.77-2.08c-.37-.28-.83-.43-1.3-.43h-.87c-.71,0-1.3-.58-1.3-1.3v-.61c0-.24.19-.43.43-.43s.43.19.43.43v.61c0,.24.19.43.43.43h.87c.65,0,1.29.22,1.81.61l2.49,1.87,2.76-2.37c.17-.15.43-.14.59.02.42.42.64.99.61,1.59s-.3,1.15-.76,1.52l-2.08,1.73s-.03.02-.03.03c-.64.43-1.47.48-2.17.13l-1.94-.97v2.33c0,.24-.19.43-.43.43h.01Z"/>
      <path class="cls-1" d="M15.57,3.46h-5.19c-.24,0-.43-.19-.43-.43s.19-.43.43-.43h5.19c.24,0,.43.19.43.43s-.19.43-.43.43Z"/>
      <path class="cls-1" d="M13.84,5.19h-3.46c-.24,0-.43-.19-.43-.43s.19-.43.43-.43h3.46c.24,0,.43.19.43.43s-.19.43-.43.43Z"/>
      <path class="cls-1" d="M13.84,6.92h-3.46c-.24,0-.43-.19-.43-.43s.19-.43.43-.43h3.46c.24,0,.43.19.43.43s-.19.43-.43.43Z"/>
      <path class="cls-2" d="M24.22,13.84h-7.78c-.24,0-.43-.19-.43-.43s.19-.43.43-.43h7.78c.48,0,.86-.39.86-.86v-.43c0-.24.19-.43.43-.43s.43.19.43.43v.43c0,.96-.77,1.73-1.73,1.73Z"/>
      <path class="cls-2" d="M11.24.86h-4.76c-.24,0-.43-.19-.43-.43s.19-.43.43-.43h4.76c.24,0,.43.19.43.43s-.19.43-.43.43Z"/>
      <path class="cls-2" d="M25.51,10.38c-.24,0-.43-.19-.43-.43V1.73c0-.48-.39-.86-.86-.86h-11.24c-.24,0-.43-.19-.43-.43s.19-.43.43-.43h11.24c.96,0,1.73.77,1.73,1.73v8.22c0,.24-.19.43-.43.43Z"/>
      <path class="cls-2" d="M2.16,16c-.24,0-.43-.19-.43-.43v-3.03c0-.24.19-.43.43-.43s.43.19.43.43v3.03c0,.24-.19.43-.43.43Z"/>
      <path class="cls-1" d="M20.32,10.38c-2.14,0-3.89-1.75-3.89-3.89s1.75-3.89,3.89-3.89,3.89,1.75,3.89,3.89-1.75,3.89-3.89,3.89ZM20.32,3.46c-1.67,0-3.03,1.36-3.03,3.03s1.36,3.03,3.03,3.03,3.03-1.36,3.03-3.03-1.36-3.03-3.03-3.03Z"/>
      <path class="cls-1" d="M23.78,6.92h-3.46c-.24,0-.43-.19-.43-.43v-3.46c0-.24.19-.43.43-.43s.43.19.43.43v3.03h3.03c.24,0,.43.19.43.43s-.19.43-.43.43Z"/>
    </g>
  </g>
</svg>