<?xml version="1.0" encoding="UTF-8"?>
<svg id="Layer_2" data-name="Layer 2" xmlns="http://www.w3.org/2000/svg" viewBox="0 0 31.66 31.66">
  <defs>
    <style>
      .cls-1 {
        fill: #4678be;
      }
    </style>
  </defs>
  <g id="Layer_1-2" data-name="Layer 1">
    <g id="icons">
      <g>
        <path class="cls-1" d="M15.83,31.64C7.09,31.64,0,24.55,0,15.83S7.09,0,15.83,0s15.83,7.09,15.83,15.83-7.09,15.83-15.83,15.83v-.02ZM15.83,1.6C7.99,1.6,1.6,7.99,1.6,15.83s6.39,14.23,14.23,14.23,14.23-6.39,14.23-14.23S23.67,1.6,15.83,1.6Z"/>
        <g>
          <circle class="cls-1" cx="15.83" cy="10.41" r="5"/>
          <path class="cls-1" d="M22.01,26.95c.11-.08.24-.16.35-.24.06-.05.11-.1.18-.13.11-.08.21-.16.3-.26.05-.05.1-.1.16-.14.1-.1.18-.18.27-.27.05-.05.08-.1.13-.14.08-.1.16-.19.22-.29.03-.05.06-.11.1-.16.06-.1.13-.21.18-.3.03-.05.05-.11.08-.16.05-.11.1-.21.13-.32.02-.05.03-.11.05-.16.03-.11.06-.22.08-.35,0-.05,0-.1.02-.16,0-.06.02-.11.02-.18h0c0-.1.02-.18,0-.27v-5.21c.02-.46-.61-.85-1.41-.86h-14.07c-.8,0-1.42.4-1.41.86v5.48h0c0,.06.02.11.02.16s0,.1.02.16c.02.11.05.22.08.34,0,.05.03.11.05.16.03.11.08.22.13.32.03.05.05.11.08.16.05.1.11.21.18.3.03.05.06.11.1.16.06.1.14.19.22.29.05.05.08.1.13.16.08.1.18.18.27.27.05.05.1.1.16.14.1.08.21.18.3.26.06.05.11.1.18.13.11.08.22.16.35.24.06.05.13.08.19.13.13.08.26.14.38.21.06.03.14.08.21.11.13.06.27.13.42.19.08.03.16.06.24.11.14.06.29.11.43.16.08.03.18.06.26.1.14.05.3.1.46.14.1.03.19.06.29.08.16.05.32.08.48.11.1.02.21.05.3.06.16.03.32.05.48.08.11.02.22.03.34.05.18.02.35.03.54.05.1,0,.21.02.3.03.29.02.58.03.86.03h0c.29,0,.58-.02.86-.03.1,0,.21-.02.3-.03.18-.02.37-.03.54-.05.11,0,.22-.03.34-.05.16-.03.32-.05.48-.08.11-.02.21-.05.3-.06.16-.03.32-.06.46-.11.1-.03.19-.05.29-.08.16-.05.3-.08.45-.14.1-.03.18-.06.26-.1.14-.05.3-.11.43-.16.08-.03.16-.06.24-.11.14-.06.29-.13.42-.19.08-.03.14-.08.22-.11.13-.06.26-.14.38-.21.06-.05.13-.08.19-.13l.03.02Z"/>
        </g>
      </g>
    </g>
  </g>
</svg>